# xmcd CD database file
#
# Track frame offsets:
#	150
#	9265
#	27930
#	46420
#	52980
#	73437
#	81730
#	94272
#	100830
#	118422
#	136995
#	143580
#	162515
#
# Disc length: 2300 seconds
#
# Revision: 0
# Processed by: cddbd v1.5.1PL0 Copyright (c) Steve Scherf et al.
# Submitted via: CDex 1.50beta10
#
DISCID=b908fa0d
DTITLE=雷光夏 - 我是雷光夏
DYEAR=1999
DGENRE=New Age
TTITLE0=時間（Ⅰ）
TTITLE1=情節
TTITLE2=逝
TTITLE3=時間（Ⅱ）老電影
TTITLE4=榜外
TTITLE5=時間（Ⅲ）小學生們總是…
TTITLE6=媽媽與我
TTITLE7=時間（Ⅳ）
TTITLE8=獵小海豹
TTITLE9=波斯
TTITLE10=時間（Ⅴ）消失
TTITLE11=冬天不相干的故事
TTITLE12=入山
EXTD=YEAR: 1999
EXTT0=
EXTT1=
EXTT2=
EXTT3=
EXTT4=
EXTT5=
EXTT6=
EXTT7=
EXTT8=
EXTT9=
EXTT10=
EXTT11=
EXTT12=
PLAYORDER=
